<svg width="100" height="100" viewBox="0 0 100 100" fill="none" xmlns="http://www.w3.org/2000/svg">
  <!-- Outer black stroke of the road loop -->
  <path
    d="M 28 82 C 24 55 24 35 34 22 C 46 8 72 8 82 22 C 92 36 86 52 70 58 C 55 64 36 60 36 60 C 36 60 52 74 68 82"
    stroke="#000000"
    stroke-width="14"
    stroke-linecap="round"
    stroke-linejoin="round"
  />
  <!-- Inner white dashed lane divider -->
  <path
    d="M 28 82 C 24 55 24 35 34 22 C 46 8 72 8 82 22 C 92 36 86 52 70 58 C 55 64 36 60 36 60 C 36 60 52 74 68 82"
    stroke="#ffffff"
    stroke-width="2.5"
    stroke-dasharray="6 4"
    stroke-linecap="round"
    stroke-linejoin="round"
  />
</svg>
